<svg viewBox="0 0 500 500" xmlns="http://www.w3.org/2000/svg">
  <defs></defs>
  <path d="M 191.279 -8.917 L 444.972 -8.917 L 444.972 244.777 L 191.279 244.777 L 191.279 -8.917 Z" fill="none" style=""></path>
  <path d="M 249.98 25.26 L 37.994 99.834 L 70.319 376.47 L 250.001 474.739 L 429.717 376.563 L 462.006 99.872 L 249.98 25.277 L 249.98 25.26 Z" style="fill: rgb(255, 71, 133);"></path>
  <path d="M 352.354 343.13 L 312.5 343.13 L 291.016 290.207 L 200.263 290.207 L 178.78 343.145 L 138.895 343.145 L 245.647 106.541 L 352.354 343.13 Z" style="fill: rgb(255, 255, 255);"></path>
  <path d="M 218.657 256.829 L 272.592 256.829 L 245.612 192.857" style="fill: rgb(255, 71, 133);"></path>
  <path d="M 359.192 74.252 L 361.898 139.312 L 416.286 143.585 L 418.628 76.49 C 418.71 74.157 416.881 72.196 414.548 72.114 C 413.545 72.08 412.566 72.401 411.78 73.022 L 390.808 89.539 L 365.975 70.708 C 364.117 69.292 361.462 69.655 360.049 71.52 C 359.455 72.304 359.153 73.268 359.192 74.252 Z" style="fill: rgb(255, 255, 255);" transform="matrix(-0.987688, -0.156434, 0.156434, -0.987688, 756.337376, 272.954256)"></path>
</svg>