<svg viewBox="0 0 500 500" xmlns="http://www.w3.org/2000/svg">
  <defs>
    <path d="M9.87245893,293.324145 L0.0114611411,30.5732167 C-0.314208957,21.8955842 6.33948896,14.5413918 15.0063196,13.9997149 L238.494389,0.0317105427 C247.316188,-0.519651867 254.914637,6.18486163 255.466,15.0066607 C255.486773,15.339032 255.497167,15.6719708 255.497167,16.0049907 L255.497167,302.318596 C255.497167,311.157608 248.331732,318.323043 239.492719,318.323043 C239.253266,318.323043 239.013844,318.317669 238.774632,318.306926 L25.1475605,308.712253 C16.8276309,308.338578 10.1847994,301.646603 9.87245893,293.324145 L9.87245893,293.324145 Z" id="path-1"></path>
  </defs>
  <path fill-rule="evenodd" d="M 67.724 121.208 C 67.724 95.592 88.488 74.828 114.101 74.828 L 392.364 74.828 C 417.976 74.828 438.741 95.592 438.741 121.208 L 438.741 353.091 C 438.741 378.703 417.976 399.468 392.364 399.468 L 114.101 399.468 C 88.488 399.468 67.724 378.703 67.724 353.091 L 67.724 121.208 Z" clip-rule="evenodd" style="fill: rgb(255, 71, 133);"></path>
  <path fill-rule="evenodd" d="M 255.659 303.068 C 237.806 303.068 226.652 322.392 235.575 337.848 C 239.717 345.023 247.374 349.443 255.659 349.443 L 325.225 349.443 C 343.075 349.443 354.229 330.123 345.305 314.662 C 341.161 307.486 333.508 303.068 325.225 303.068 L 255.659 303.068 Z" clip-rule="evenodd" style="fill: rgb(255, 255, 255);"></path>
  <path fill-rule="evenodd" d="M 123.32 170.733 C 132.375 161.678 147.056 161.678 156.11 170.733 L 225.676 240.298 C 234.726 249.355 234.726 264.03 225.676 273.084 L 156.11 342.651 C 143.267 355.05 121.82 348.902 117.503 331.582 C 115.565 323.822 117.766 315.613 123.32 309.864 L 176.492 256.691 L 123.32 203.519 C 114.268 194.463 114.268 179.788 123.32 170.733 Z" clip-rule="evenodd" style="fill: rgb(255, 255, 255);"></path>
  <path d="M 315.468 139.755 L 318.174 74.695 L 372.562 70.422 L 374.904 137.517 C 374.986 139.85 373.157 141.811 370.824 141.893 C 369.821 141.927 368.842 141.606 368.056 140.985 L 347.084 124.468 L 322.251 143.299 C 320.393 144.715 317.738 144.352 316.325 142.487 C 315.731 141.703 315.429 140.739 315.468 139.755 Z" style="fill: rgb(255, 255, 255);"></path>
  <path d="M 182.128 -14.386 L 435.821 -14.386 L 435.821 239.308 L 182.128 239.308 L 182.128 -14.386 Z" fill="none" style=""></path>
</svg>