<svg viewBox="0 0 500 500" xmlns="http://www.w3.org/2000/svg">
  <defs>
    <path d="M9.87245893,293.324145 L0.0114611411,30.5732167 C-0.314208957,21.8955842 6.33948896,14.5413918 15.0063196,13.9997149 L238.494389,0.0317105427 C247.316188,-0.519651867 254.914637,6.18486163 255.466,15.0066607 C255.486773,15.339032 255.497167,15.6719708 255.497167,16.0049907 L255.497167,302.318596 C255.497167,311.157608 248.331732,318.323043 239.492719,318.323043 C239.253266,318.323043 239.013844,318.317669 238.774632,318.306926 L25.1475605,308.712253 C16.8276309,308.338578 10.1847994,301.646603 9.87245893,293.324145 L9.87245893,293.324145 Z" id="path-1"></path>
  </defs>
  <g transform="matrix(1.565575, 0, 0, 1.565558, 48.878956, -0.033175)">
    <path d="M9.87245893,293.324145 L0.0114611411,30.5732167 C-0.314208957,21.8955842 6.33948896,14.5413918 15.0063196,13.9997149 L238.494389,0.0317105427 C247.316188,-0.519651867 254.914637,6.18486163 255.466,15.0066607 C255.486773,15.339032 255.497167,15.6719708 255.497167,16.0049907 L255.497167,302.318596 C255.497167,311.157608 248.331732,318.323043 239.492719,318.323043 C239.253266,318.323043 239.013844,318.317669 238.774632,318.306926 L25.1475605,308.712253 C16.8276309,308.338578 10.1847994,301.646603 9.87245893,293.324145 L9.87245893,293.324145 Z" transform="matrix(1, 0, 0, 1, 0, 0)" fill="#FF4785" fill-rule="nonzero"></path>
    <path d="M 188.665358 39.126973 L 190.191903 2.41148534 L 220.883535 0 L 222.205755 37.8634126 C 222.251771 39.1811466 221.22084 40.2866846 219.903106 40.3327009 C 219.338869 40.3524045 218.785907 40.1715096 218.342409 39.8221376 L 206.506729 30.4984116 L 192.493574 41.1282444 C 191.443077 41.9251106 189.945493 41.7195021 189.148627 40.6690048 C 188.813185 40.2267976 188.6423 39.6815326 188.665358 39.126973 Z" fill="#FFFFFF" fill-rule="nonzero" mask="url(#mask-2)"></path>
  </g>
  <path fill-rule="evenodd" d="M 91.45 150.905 C 91.45 129.014 109.196 111.268 131.088 111.268 L 368.914 111.268 C 390.806 111.268 408.551 129.014 408.551 150.905 L 408.551 349.094 C 408.551 370.986 390.806 388.732 368.914 388.732 L 131.088 388.732 C 109.196 388.732 91.45 370.986 91.45 349.094 L 91.45 150.905 Z M 156.714 176.531 C 164.453 168.794 177 168.794 184.738 176.531 L 244.194 235.988 C 251.931 243.726 251.931 256.273 244.194 264.012 L 184.738 323.469 C 173.763 334.066 155.432 328.812 151.74 314.01 C 150.086 307.377 151.966 300.361 156.714 295.444 L 202.159 249.999 L 156.714 204.555 C 148.977 196.815 148.977 184.27 156.714 176.531 Z M 269.82 289.638 C 254.563 289.638 245.029 306.153 252.655 319.366 C 256.197 325.497 262.739 329.275 269.82 329.275 L 329.277 329.275 C 344.533 329.275 354.068 312.76 346.439 299.546 C 342.899 293.415 336.358 289.638 329.277 289.638 L 269.82 289.638 Z" clip-rule="evenodd" style="fill: rgb(255, 255, 255);"></path>
</svg>