<svg viewBox="0 0 500 500" xmlns="http://www.w3.org/2000/svg">
  <defs>
    <path d="M9.87245893,293.324145 L0.0114611411,30.5732167 C-0.314208957,21.8955842 6.33948896,14.5413918 15.0063196,13.9997149 L238.494389,0.0317105427 C247.316188,-0.519651867 254.914637,6.18486163 255.466,15.0066607 C255.486773,15.339032 255.497167,15.6719708 255.497167,16.0049907 L255.497167,302.318596 C255.497167,311.157608 248.331732,318.323043 239.492719,318.323043 C239.253266,318.323043 239.013844,318.317669 238.774632,318.306926 L25.1475605,308.712253 C16.8276309,308.338578 10.1847994,301.646603 9.87245893,293.324145 L9.87245893,293.324145 Z" id="path-1"></path>
  </defs>
  <g transform="matrix(1.565575, 0, 0, 1.565558, 48.878956, -0.033175)">
    <path d="M9.87245893,293.324145 L0.0114611411,30.5732167 C-0.314208957,21.8955842 6.33948896,14.5413918 15.0063196,13.9997149 L238.494389,0.0317105427 C247.316188,-0.519651867 254.914637,6.18486163 255.466,15.0066607 C255.486773,15.339032 255.497167,15.6719708 255.497167,16.0049907 L255.497167,302.318596 C255.497167,311.157608 248.331732,318.323043 239.492719,318.323043 C239.253266,318.323043 239.013844,318.317669 238.774632,318.306926 L25.1475605,308.712253 C16.8276309,308.338578 10.1847994,301.646603 9.87245893,293.324145 L9.87245893,293.324145 Z" transform="matrix(1, 0, 0, 1, 0, 0)" fill="#FF4785" fill-rule="nonzero"></path>
    <path d="M 188.665358 39.126973 L 190.191903 2.41148534 L 220.883535 0 L 222.205755 37.8634126 C 222.251771 39.1811466 221.22084 40.2866846 219.903106 40.3327009 C 219.338869 40.3524045 218.785907 40.1715096 218.342409 39.8221376 L 206.506729 30.4984116 L 192.493574 41.1282444 C 191.443077 41.9251106 189.945493 41.7195021 189.148627 40.6690048 C 188.813185 40.2267976 188.6423 39.6815326 188.665358 39.126973 Z" fill="#FFFFFF" fill-rule="nonzero" mask="url(#mask-2)"></path>
  </g>
  <path d="M 250.025 110.67 C 250.025 85.915 276.824 70.443 298.262 82.82 C 308.212 88.564 314.342 99.181 314.342 110.67 L 314.342 121.389 C 314.342 133.23 323.941 142.829 335.78 142.829 L 400.098 142.829 C 411.938 142.829 421.536 152.428 421.536 164.267 L 421.536 228.584 C 421.536 240.425 411.938 250.024 400.098 250.024 L 389.377 250.024 C 364.623 250.024 349.15 276.822 361.529 298.261 C 367.272 308.211 377.89 314.341 389.377 314.341 L 400.098 314.341 C 411.938 314.341 421.536 323.939 421.536 335.781 L 421.536 400.097 C 421.536 411.937 411.938 421.536 400.098 421.536 L 335.78 421.536 C 323.941 421.536 314.342 411.937 314.342 400.097 L 314.342 389.378 C 314.342 364.621 287.542 349.15 266.102 361.527 C 256.154 367.272 250.025 377.888 250.025 389.378 L 250.025 400.097 C 250.025 411.937 240.427 421.536 228.585 421.536 L 164.269 421.536 C 152.427 421.536 142.829 411.937 142.829 400.097 L 142.829 335.781 C 142.829 323.939 133.232 314.341 121.39 314.341 L 110.671 314.341 C 85.914 314.341 70.442 287.542 82.82 266.104 C 88.565 256.153 99.181 250.024 110.671 250.024 L 121.39 250.024 C 133.232 250.024 142.829 240.425 142.829 228.584 L 142.829 164.267 C 142.829 152.428 152.427 142.829 164.269 142.829 L 228.585 142.829 C 240.427 142.829 250.025 133.23 250.025 121.389 L 250.025 110.67 Z" style="fill: rgb(255, 255, 255);"></path>
</svg>