<svg viewBox="0 0 500 500" xmlns="http://www.w3.org/2000/svg">
  <defs>
    <path d="M9.87245893,293.324145 L0.0114611411,30.5732167 C-0.314208957,21.8955842 6.33948896,14.5413918 15.0063196,13.9997149 L238.494389,0.0317105427 C247.316188,-0.519651867 254.914637,6.18486163 255.466,15.0066607 C255.486773,15.339032 255.497167,15.6719708 255.497167,16.0049907 L255.497167,302.318596 C255.497167,311.157608 248.331732,318.323043 239.492719,318.323043 C239.253266,318.323043 239.013844,318.317669 238.774632,318.306926 L25.1475605,308.712253 C16.8276309,308.338578 10.1847994,301.646603 9.87245893,293.324145 L9.87245893,293.324145 Z" id="path-1"></path>
  </defs>
  <path d="M 235.151 60.408 C 235.151 32.02 265.881 14.278 290.465 28.472 C 301.874 35.06 308.902 47.234 308.902 60.408 L 308.902 72.7 C 308.902 86.277 319.909 97.284 333.487 97.284 L 407.238 97.284 C 420.816 97.284 431.822 108.291 431.822 121.867 L 431.822 195.62 C 431.822 209.197 420.816 220.204 407.238 220.204 L 394.947 220.204 C 366.56 220.204 348.818 250.934 363.011 275.517 C 369.598 286.927 381.772 293.956 394.947 293.956 L 407.238 293.956 C 420.816 293.956 431.822 304.962 431.822 318.54 L 431.822 392.291 C 431.822 405.869 420.816 416.876 407.238 416.876 L 333.487 416.876 C 319.909 416.876 308.902 405.869 308.902 392.291 L 308.902 380 C 308.902 351.613 278.172 333.87 253.588 348.063 C 242.18 354.651 235.151 366.825 235.151 380 L 235.151 392.291 C 235.151 405.869 224.144 416.876 210.566 416.876 L 136.815 416.876 C 123.237 416.876 112.231 405.869 112.231 392.291 L 112.231 318.54 C 112.231 304.962 101.224 293.956 87.646 293.956 L 75.355 293.956 C 46.968 293.956 29.226 263.226 43.42 238.641 C 50.006 227.232 62.18 220.204 75.355 220.204 L 87.646 220.204 C 101.224 220.204 112.231 209.197 112.231 195.62 L 112.231 121.867 C 112.231 108.291 123.237 97.284 136.815 97.284 L 210.566 97.284 C 224.144 97.284 235.151 86.277 235.151 72.7 L 235.151 60.408 Z" style="fill: rgb(255, 71, 133);"></path>
  <path d="M 327.833 154.95 L 330.256 96.686 L 378.962 92.86 L 381.06 152.946 C 381.133 155.035 379.496 156.792 377.406 156.865 C 376.508 156.895 375.632 156.608 374.928 156.052 L 356.146 141.26 L 333.908 158.124 C 332.243 159.392 329.866 159.067 328.601 157.397 C 328.068 156.695 327.798 155.831 327.833 154.95 Z" fill="white" style=""></path>
  <path d="M 272.787 190.284 C 272.787 195.505 307.948 193.001 312.668 189.335 C 312.668 153.787 293.595 135.105 258.665 135.105 C 223.738 135.105 204.168 154.079 204.168 182.534 C 204.168 232.095 271.052 233.042 271.052 260.075 C 271.052 267.665 267.337 272.172 259.162 272.172 C 248.508 272.172 244.299 266.73 244.796 248.233 C 244.796 244.221 204.168 242.969 202.929 248.233 C 199.776 293.057 227.701 305.986 259.657 305.986 C 290.622 305.986 314.898 289.482 314.898 259.602 C 314.898 206.484 247.023 207.907 247.023 181.584 C 247.023 170.914 254.951 169.492 259.657 169.492 C 264.61 169.492 273.529 170.364 272.787 190.284 Z" fill="white" style=""></path>
  <path d="M 182.128 -14.386 L 435.821 -14.386 L 435.821 239.308 L 182.128 239.308 L 182.128 -14.386 Z" fill="none" style=""></path>
</svg>