<svg viewBox="0 0 500 500" xmlns="http://www.w3.org/2000/svg">
  <defs>
    <path d="M9.87245893,293.324145 L0.0114611411,30.5732167 C-0.314208957,21.8955842 6.33948896,14.5413918 15.0063196,13.9997149 L238.494389,0.0317105427 C247.316188,-0.519651867 254.914637,6.18486163 255.466,15.0066607 C255.486773,15.339032 255.497167,15.6719708 255.497167,16.0049907 L255.497167,302.318596 C255.497167,311.157608 248.331732,318.323043 239.492719,318.323043 C239.253266,318.323043 239.013844,318.317669 238.774632,318.306926 L25.1475605,308.712253 C16.8276309,308.338578 10.1847994,301.646603 9.87245893,293.324145 L9.87245893,293.324145 Z" id="path-1"></path>
  </defs>
  <g transform="matrix(1.565575, 0, 0, 1.565558, 48.878956, -0.033175)">
    <path d="M9.87245893,293.324145 L0.0114611411,30.5732167 C-0.314208957,21.8955842 6.33948896,14.5413918 15.0063196,13.9997149 L238.494389,0.0317105427 C247.316188,-0.519651867 254.914637,6.18486163 255.466,15.0066607 C255.486773,15.339032 255.497167,15.6719708 255.497167,16.0049907 L255.497167,302.318596 C255.497167,311.157608 248.331732,318.323043 239.492719,318.323043 C239.253266,318.323043 239.013844,318.317669 238.774632,318.306926 L25.1475605,308.712253 C16.8276309,308.338578 10.1847994,301.646603 9.87245893,293.324145 L9.87245893,293.324145 Z" transform="matrix(1, 0, 0, 1, 0, 0)" fill="#FF4785" fill-rule="nonzero"></path>
    <path d="M 188.665358 39.126973 L 190.191903 2.41148534 L 220.883535 0 L 222.205755 37.8634126 C 222.251771 39.1811466 221.22084 40.2866846 219.903106 40.3327009 C 219.338869 40.3524045 218.785907 40.1715096 218.342409 39.8221376 L 206.506729 30.4984116 L 192.493574 41.1282444 C 191.443077 41.9251106 189.945493 41.7195021 189.148627 40.6690048 C 188.813185 40.2267976 188.6423 39.6815326 188.665358 39.126973 Z" fill="#FFFFFF" fill-rule="nonzero" mask="url(#mask-2)"></path>
  </g>
  <path d="M 400.811 371.582 L 108.815 371.582 C 95.232 371.582 84.221 360.571 84.221 346.989 L 84.221 186.206 C 84.221 172.624 95.232 161.613 108.815 161.613 L 400.811 161.613 C 414.393 161.613 425.404 172.624 425.404 186.206 L 425.404 346.961 C 425.411 360.548 414.398 371.569 400.811 371.569 L 400.811 371.582 Z M 166.233 322.366 L 166.233 258.395 L 199.043 299.408 L 231.84 258.395 L 231.84 322.366 L 264.65 322.366 L 264.65 210.843 L 231.84 210.843 L 199.043 251.856 L 166.233 210.843 L 133.409 210.843 L 133.409 322.395 L 166.233 322.366 Z M 386.055 266.597 L 353.23 266.597 L 353.23 210.828 L 320.434 210.828 L 320.434 266.597 L 287.624 266.597 L 336.825 324.016 L 386.055 266.597 Z" style="fill: rgb(255, 255, 255);"></path>
</svg>