<svg viewBox="0 0 500 500" xmlns="http://www.w3.org/2000/svg">
  <defs></defs>
  <path d="M 191.279 -8.917 L 444.972 -8.917 L 444.972 244.777 L 191.279 244.777 L 191.279 -8.917 Z" fill="none" style=""></path>
  <g style="" transform="matrix(0.797091, 0, 0, 0.797091, 100.285522, 6.392942)">
    <path d="M 426.879 489.698 L -52.912 489.698 C -75.224 489.698 -93.325 471.618 -93.325 449.285 L -93.325 185.098 C -93.325 162.79 -75.224 144.688 -52.912 144.688 L 426.879 144.688 C 449.209 144.688 467.286 162.79 467.286 185.098 L 467.286 449.24 C 467.31 471.572 449.209 489.674 426.879 489.674 L 426.879 489.698 Z" style="fill: rgb(255, 71, 133);"></path>
    <path d="M 402.631 317.192 L 348.694 317.192 L 348.694 225.556 L 294.806 225.556 L 294.806 317.192 L 240.892 317.192 L 321.739 411.539 L 402.631 317.192 Z" style="fill: rgb(255, 255, 255);"></path>
    <path d="M 41.431 408.829 L 41.431 303.716 L 95.343 371.105 L 149.233 303.716 L 149.233 408.829 L 203.145 408.829 L 203.145 225.577 L 149.233 225.577 L 95.343 292.971 L 41.431 225.577 L -12.504 225.577 L -12.504 408.877 L 41.431 408.829 Z" style="fill: rgb(255, 255, 255);"></path>
    <path d="M 358.098 144.254 L 360.804 209.314 L 415.192 213.587 L 417.534 146.492 C 417.616 144.159 415.787 142.198 413.454 142.116 C 412.451 142.082 411.472 142.403 410.686 143.024 L 389.714 159.541 L 364.881 140.71 C 363.023 139.294 360.368 139.657 358.955 141.522 C 358.361 142.306 358.059 143.27 358.098 144.254 Z" style="fill: rgb(255, 255, 255);" transform="matrix(-1, 0, 0, -1, 775.631261, 353.43336)"></path>
  </g>
</svg>