<svg viewBox="0 0 500 500" xmlns="http://www.w3.org/2000/svg">
  <defs></defs>
  <g transform="matrix(1.131409, 0, 0, 1.131409, 32.857418, -46.25795)" style="">
    <path d="M 340.424 401.365 L 49.44 401.365 C 35.909 401.365 24.93 387.239 24.93 369.791 L 24.93 163.384 C 24.93 145.955 35.909 131.812 49.44 131.812 L 340.424 131.812 C 353.966 131.812 364.93 145.955 364.93 163.384 L 364.93 369.756 C 364.944 387.204 353.966 401.346 340.424 401.346 L 340.424 401.365 Z" style="fill: rgb(255, 71, 133);"></path>
    <path d="M 290.773 132.195 L 292.93 184.053 L 336.282 187.459 L 338.149 133.978 C 338.215 132.119 336.757 130.556 334.897 130.49 C 334.098 130.463 333.317 130.719 332.691 131.214 L 315.974 144.38 L 296.18 129.37 C 294.699 128.241 292.583 128.53 291.456 130.017 C 290.983 130.642 290.742 131.41 290.773 132.195 Z" style="fill: rgb(255, 255, 255);" transform="matrix(-1, 0, 0, -1, 628.921526, 316.140268)"></path>
    <path d="M 177.234 158.774 C 116.58 158.774 67.256 208.081 67.256 268.718 C 67.256 329.374 116.58 378.699 177.234 378.699 C 237.857 378.699 287.181 329.374 287.181 268.718 C 287.181 208.081 237.857 158.774 177.234 158.774 Z M 177.234 169.245 C 232.157 169.245 276.708 213.798 276.708 268.718 C 276.708 323.675 232.157 368.226 177.234 368.226 C 122.28 368.226 77.727 323.675 77.727 268.718 C 77.727 213.798 122.28 169.245 177.234 169.245 Z M 143.965 212.533 C 142.666 212.515 141.367 212.515 140.086 212.599 C 131.081 213.09 125.686 217.304 124.168 226.073 C 123.139 232.162 123.308 238.433 122.887 244.554 C 122.751 247.741 122.415 250.945 121.825 254.066 C 120.61 259.63 118.164 261.367 112.516 261.686 C 111.74 261.771 111.032 261.89 110.272 262.026 L 110.272 275.464 C 120.61 275.952 121.975 279.596 122.837 290.405 C 123.139 294.333 122.718 298.246 122.971 302.173 C 123.139 305.902 123.628 309.594 124.403 313.202 C 126.765 323.017 136.36 326.322 147.995 324.333 L 147.995 312.578 C 146.124 312.578 144.505 312.63 142.886 312.578 C 138.922 312.461 137.457 311.483 137.085 307.689 C 136.561 302.782 136.714 297.775 136.375 292.849 C 135.82 283.66 134.808 274.638 125.855 268.77 C 130.459 265.381 133.779 261.35 134.841 255.988 C 135.601 252.21 136.056 248.45 136.36 244.64 C 136.63 240.828 136.157 236.948 136.478 233.188 C 137.016 227.086 137.421 224.605 144.757 224.842 C 145.836 224.842 146.898 224.69 148.13 224.605 L 148.13 212.599 C 146.68 212.599 145.281 212.548 143.965 212.533 Z M 213.524 212.616 C 211.062 212.548 208.548 212.752 206.088 213.174 L 206.088 224.842 C 208.347 224.842 210.085 224.842 211.804 224.876 C 214.806 224.909 217.083 226.073 217.402 229.412 C 217.706 232.463 217.672 235.534 217.976 238.636 C 218.566 244.774 218.919 250.98 219.981 257.032 C 220.893 261.992 224.3 265.734 228.582 268.77 C 221.113 273.828 218.919 280.995 218.515 289.091 C 218.312 294.621 218.194 300.186 217.89 305.783 C 217.638 310.859 215.868 312.478 210.742 312.63 C 209.325 312.647 207.908 312.798 206.306 312.883 L 206.306 324.855 C 209.325 324.855 212.057 325.007 214.806 324.855 C 223.337 324.333 228.515 320.201 230.202 311.92 C 230.909 307.336 231.33 302.764 231.466 298.143 C 231.752 293.912 231.719 289.646 232.141 285.43 C 232.782 278.903 235.816 276.173 242.326 275.751 C 242.95 275.699 243.573 275.53 244.146 275.347 L 244.146 261.923 C 243.067 261.789 242.275 261.686 241.499 261.62 C 236.576 261.417 234.13 259.798 232.898 255.127 C 232.141 252.16 231.686 249.092 231.516 246.021 C 231.179 240.356 231.229 234.656 230.826 228.975 C 230.133 218.064 223.556 212.904 213.524 212.616 Z M 150.39 260.996 C 144.438 260.996 140.727 267.454 143.678 272.582 C 144.942 274.756 147.152 276.19 149.647 276.409 L 150.154 276.409 C 154.334 276.694 157.927 273.458 158.179 269.309 L 158.179 268.871 C 158.265 264.588 154.842 261.08 150.576 260.996 L 150.39 260.996 Z M 177.067 260.996 C 172.986 260.877 169.579 264.082 169.428 268.13 C 169.428 268.399 169.428 268.601 169.462 268.871 C 169.462 273.458 172.616 276.409 177.353 276.409 C 182.007 276.409 184.925 273.389 184.925 268.618 C 184.875 263.997 181.788 260.946 177.067 260.996 Z M 204.216 260.996 C 199.897 260.911 196.341 264.318 196.223 268.652 C 196.223 272.968 199.678 276.409 203.996 276.409 L 204.081 276.409 C 207.96 277.134 211.887 273.339 212.157 268.854 C 212.36 264.637 208.548 260.996 204.216 260.996 Z" style="fill: rgb(255, 255, 255);"></path>
  </g>
</svg>