<svg viewBox="0 0 500 500" xmlns="http://www.w3.org/2000/svg">
  <defs>
    <path d="M9.87245893,293.324145 L0.0114611411,30.5732167 C-0.314208957,21.8955842 6.33948896,14.5413918 15.0063196,13.9997149 L238.494389,0.0317105427 C247.316188,-0.519651867 254.914637,6.18486163 255.466,15.0066607 C255.486773,15.339032 255.497167,15.6719708 255.497167,16.0049907 L255.497167,302.318596 C255.497167,311.157608 248.331732,318.323043 239.492719,318.323043 C239.253266,318.323043 239.013844,318.317669 238.774632,318.306926 L25.1475605,308.712253 C16.8276309,308.338578 10.1847994,301.646603 9.87245893,293.324145 L9.87245893,293.324145 Z" id="path-1"></path>
  </defs>
  <g transform="matrix(1.565575, 0, 0, 1.565558, 48.878956, -0.033175)">
    <path d="M9.87245893,293.324145 L0.0114611411,30.5732167 C-0.314208957,21.8955842 6.33948896,14.5413918 15.0063196,13.9997149 L238.494389,0.0317105427 C247.316188,-0.519651867 254.914637,6.18486163 255.466,15.0066607 C255.486773,15.339032 255.497167,15.6719708 255.497167,16.0049907 L255.497167,302.318596 C255.497167,311.157608 248.331732,318.323043 239.492719,318.323043 C239.253266,318.323043 239.013844,318.317669 238.774632,318.306926 L25.1475605,308.712253 C16.8276309,308.338578 10.1847994,301.646603 9.87245893,293.324145 L9.87245893,293.324145 Z" transform="matrix(1, 0, 0, 1, 0, 0)" fill="#FF4785" fill-rule="nonzero"></path>
    <path d="M 188.665358 39.126973 L 190.191903 2.41148534 L 220.883535 0 L 222.205755 37.8634126 C 222.251771 39.1811466 221.22084 40.2866846 219.903106 40.3327009 C 219.338869 40.3524045 218.785907 40.1715096 218.342409 39.8221376 L 206.506729 30.4984116 L 192.493574 41.1282444 C 191.443077 41.9251106 189.945493 41.7195021 189.148627 40.6690048 C 188.813185 40.2267976 188.6423 39.6815326 188.665358 39.126973 Z" fill="#FFFFFF" fill-rule="nonzero" mask="url(#mask-2)"></path>
  </g>
  <path d="M 245.257 82.118 C 157.655 82.118 86.416 153.331 86.416 240.907 C 86.416 328.511 157.655 399.75 245.257 399.75 C 332.814 399.75 404.053 328.511 404.053 240.907 C 404.053 153.331 332.814 82.118 245.257 82.118 Z M 245.257 97.241 C 324.582 97.241 388.926 161.587 388.926 240.907 C 388.926 320.281 324.582 384.623 245.257 384.623 C 165.887 384.623 101.54 320.281 101.54 240.907 C 101.54 161.587 165.887 97.241 245.257 97.241 Z M 197.208 159.761 C 195.331 159.734 193.454 159.734 191.604 159.857 C 178.599 160.566 170.806 166.653 168.612 179.317 C 167.128 188.11 167.374 197.167 166.764 206.009 C 166.568 210.61 166.083 215.238 165.23 219.747 C 163.476 227.781 159.943 230.291 151.787 230.751 C 150.664 230.873 149.643 231.046 148.546 231.242 L 148.546 250.651 C 163.476 251.355 165.447 256.617 166.692 272.229 C 167.128 277.902 166.522 283.553 166.886 289.225 C 167.128 294.61 167.835 299.945 168.954 305.154 C 172.366 319.329 186.223 324.103 203.027 321.23 L 203.027 304.254 C 200.324 304.254 197.987 304.327 195.648 304.254 C 189.923 304.083 187.808 302.671 187.271 297.191 C 186.514 290.105 186.734 282.873 186.244 275.759 C 185.443 262.489 183.98 249.458 171.052 240.982 C 177.702 236.089 182.495 230.266 184.03 222.521 C 185.128 217.065 185.784 211.635 186.223 206.133 C 186.614 200.626 185.931 195.022 186.395 189.593 C 187.171 180.778 187.756 177.197 198.351 177.538 C 199.91 177.538 201.443 177.318 203.223 177.197 L 203.223 159.857 C 201.128 159.857 199.108 159.783 197.208 159.761 Z M 297.67 159.882 C 294.115 159.783 290.485 160.077 286.93 160.686 L 286.93 177.538 C 290.193 177.538 292.702 177.538 295.186 177.587 C 299.522 177.635 302.811 179.317 303.271 184.139 C 303.71 188.545 303.662 192.981 304.099 197.461 C 304.953 206.327 305.462 215.289 306.997 224.029 C 308.314 231.193 313.233 236.597 319.419 240.982 C 308.633 248.289 305.462 258.638 304.878 270.331 C 304.587 278.318 304.414 286.355 303.977 294.439 C 303.613 301.771 301.055 304.109 293.653 304.327 C 291.606 304.353 289.558 304.571 287.246 304.694 L 287.246 321.983 C 291.606 321.983 295.551 322.203 299.522 321.983 C 311.843 321.23 319.322 315.262 321.758 303.302 C 322.781 296.683 323.387 290.079 323.583 283.406 C 323.997 277.295 323.947 271.133 324.558 265.043 C 325.483 255.617 329.867 251.675 339.269 251.065 C 340.169 250.989 341.069 250.745 341.897 250.482 L 341.897 231.094 C 340.339 230.899 339.195 230.751 338.074 230.655 C 330.965 230.363 327.431 228.023 325.651 221.278 C 324.558 216.993 323.901 212.562 323.657 208.126 C 323.169 199.946 323.242 191.713 322.659 183.507 C 321.659 167.75 312.159 160.298 297.67 159.882 Z M 206.487 229.754 C 197.891 229.754 192.53 239.082 196.792 246.489 C 198.619 249.627 201.811 251.698 205.412 252.017 L 206.146 252.017 C 212.183 252.426 217.371 247.753 217.738 241.762 L 217.738 241.127 C 217.86 234.942 212.916 229.875 206.755 229.754 L 206.487 229.754 Z M 245.017 229.754 C 239.121 229.583 234.201 234.213 233.983 240.058 C 233.983 240.446 233.983 240.739 234.033 241.127 C 234.033 247.753 238.587 252.017 245.43 252.017 C 252.15 252.017 256.365 247.653 256.365 240.763 C 256.293 234.089 251.834 229.683 245.017 229.754 Z M 284.226 229.754 C 277.99 229.631 272.853 234.553 272.683 240.811 C 272.683 247.046 277.673 252.017 283.909 252.017 L 284.031 252.017 C 289.634 253.062 295.306 247.581 295.695 241.105 C 295.989 235.014 290.485 229.754 284.226 229.754 Z" style="fill: rgb(255, 255, 255);"></path>
</svg>