<svg viewBox="0 0 500 500" xmlns="http://www.w3.org/2000/svg">
  <g transform="matrix(1.565575, 0, 0, 1.565558, 42.081814, -1.10764)">
    <path d="M9.87245893,293.324145 L0.0114611411,30.5732167 C-0.314208957,21.8955842 6.33948896,14.5413918 15.0063196,13.9997149 L238.494389,0.0317105427 C247.316188,-0.519651867 254.914637,6.18486163 255.466,15.0066607 C255.486773,15.339032 255.497167,15.6719708 255.497167,16.0049907 L255.497167,302.318596 C255.497167,311.157608 248.331732,318.323043 239.492719,318.323043 C239.253266,318.323043 239.013844,318.317669 238.774632,318.306926 L25.1475605,308.712253 C16.8276309,308.338578 10.1847994,301.646603 9.87245893,293.324145 L9.87245893,293.324145 Z" transform="matrix(1, 0, 0, 1, 0, 0)" fill="#FF4785" fill-rule="nonzero"></path>
    <path d="M 188.665358 39.126973 L 190.191903 2.41148534 L 220.883535 0 L 222.205755 37.8634126 C 222.251771 39.1811466 221.22084 40.2866846 219.903106 40.3327009 C 219.338869 40.3524045 218.785907 40.1715096 218.342409 39.8221376 L 206.506729 30.4984116 L 192.493574 41.1282444 C 191.443077 41.9251106 189.945493 41.7195021 189.148627 40.6690048 C 188.813185 40.2267976 188.6423 39.6815326 188.665358 39.126973 Z" fill="#FFFFFF" fill-rule="nonzero" mask="url(#mask-2)"></path>
  </g>
  <path d="M 139.243 212.79 C 118.615 212.79 101.738 229.667 101.738 250.294 C 101.738 270.922 118.615 287.799 139.243 287.799 C 159.87 287.799 176.747 270.922 176.747 250.294 C 176.747 229.667 159.87 212.79 139.243 212.79 Z M 364.269 212.79 C 343.642 212.79 326.764 229.667 326.764 250.294 C 326.764 270.922 343.642 287.799 364.269 287.799 C 384.896 287.799 401.773 270.922 401.773 250.294 C 401.773 229.667 384.896 212.79 364.269 212.79 Z M 251.755 212.79 C 231.128 212.79 214.252 229.667 214.252 250.294 C 214.252 270.922 231.128 287.799 251.755 287.799 C 272.384 287.799 289.259 270.922 289.259 250.294 C 289.259 229.667 272.384 212.79 251.755 212.79 Z" style="fill: rgb(255, 255, 255);"></path>
</svg>