<svg viewBox="0 0 500 500" xmlns="http://www.w3.org/2000/svg">
  <g transform="matrix(1.565575, 0, 0, 1.565558, 42.855701, -1.10764)">
    <path d="M9.87245893,293.324145 L0.0114611411,30.5732167 C-0.314208957,21.8955842 6.33948896,14.5413918 15.0063196,13.9997149 L238.494389,0.0317105427 C247.316188,-0.519651867 254.914637,6.18486163 255.466,15.0066607 C255.486773,15.339032 255.497167,15.6719708 255.497167,16.0049907 L255.497167,302.318596 C255.497167,311.157608 248.331732,318.323043 239.492719,318.323043 C239.253266,318.323043 239.013844,318.317669 238.774632,318.306926 L25.1475605,308.712253 C16.8276309,308.338578 10.1847994,301.646603 9.87245893,293.324145 L9.87245893,293.324145 Z" transform="matrix(1, 0, 0, 1, 0, 0)" fill="#FF4785" fill-rule="nonzero"></path>
    <path d="M 188.665358 39.126973 L 190.191903 2.41148534 L 220.883535 0 L 222.205755 37.8634126 C 222.251771 39.1811466 221.22084 40.2866846 219.903106 40.3327009 C 219.338869 40.3524045 218.785907 40.1715096 218.342409 39.8221376 L 206.506729 30.4984116 L 192.493574 41.1282444 C 191.443077 41.9251106 189.945493 41.7195021 189.148627 40.6690048 C 188.813185 40.2267976 188.6423 39.6815326 188.665358 39.126973 Z" fill="#FFFFFF" fill-rule="nonzero" mask="url(#mask-2)"></path>
  </g>
  <g transform="matrix(2.635492, 0, 0, 2.635492, -373.432098, -388.851746)" style="">
    <path style="fill: rgb(255, 255, 255);" d="M 208.563 287.102 L 208.563 261.741 C 208.563 260.735 209.067 259.795 209.907 259.239 C 210.746 258.682 211.808 258.584 212.736 258.976 L 228.669 265.717 L 222.688 254.678 L 205.499 253.943 C 204.695 256.704 204.262 259.622 204.262 262.639 L 204.262 297.334 L 219.008 303.719 L 219.008 290.105 L 211.565 290.105 C 209.907 290.105 208.563 288.76 208.563 287.102 Z"></path>
    <path style="fill: rgb(255, 255, 255);" d="M 266.524 262.639 C 266.524 259.621 266.091 256.704 265.286 253.943 L 248.097 254.677 L 242.116 265.717 L 258.05 258.976 C 258.976 258.583 260.039 258.682 260.878 259.238 C 261.718 259.794 262.223 260.734 262.223 261.741 L 262.223 287.101 C 262.223 288.76 260.878 290.104 259.22 290.104 L 251.777 290.104 L 251.777 304.753 L 266.524 297.443 L 266.524 262.639 Z"></path>
    <path style="fill: rgb(255, 255, 255);" d="M 274.858 231.014 C 279.253 219.517 280.795 207.767 279.199 197.927 C 277.73 188.866 273.783 182.596 268.067 180.217 C 270.487 184.827 271.943 190.544 272.34 197.115 C 272.927 206.857 271.117 217.554 267.104 228.05 C 265.157 233.146 262.772 237.977 260.016 242.411 C 259.141 243.82 257.29 244.252 255.881 243.377 C 254.473 242.501 254.041 240.65 254.916 239.241 C 255.03 239.057 255.14 238.869 255.252 238.684 C 249.859 234.205 242.935 231.508 235.393 231.508 C 227.85 231.508 220.926 234.205 215.533 238.684 C 215.646 238.869 215.755 239.057 215.869 239.241 C 216.745 240.65 216.313 242.501 214.904 243.377 C 213.495 244.252 211.644 243.82 210.769 242.411 C 208.013 237.977 205.628 233.146 203.681 228.05 C 199.668 217.554 197.858 206.857 198.445 197.115 C 198.842 190.544 200.298 184.827 202.718 180.217 C 197.002 182.596 193.055 188.865 191.585 197.927 C 189.99 207.767 191.532 219.517 195.927 231.014 C 198.317 237.268 201.702 243.599 204.929 247.908 L 224.645 248.75 C 224.668 248.751 224.689 248.755 224.712 248.756 C 224.77 248.76 224.827 248.765 224.884 248.773 C 224.93 248.778 224.976 248.785 225.021 248.793 C 225.069 248.801 225.116 248.81 225.164 248.821 C 225.216 248.832 225.267 248.845 225.318 248.859 C 225.358 248.87 225.398 248.882 225.437 248.895 C 225.492 248.912 225.545 248.93 225.598 248.951 C 225.635 248.965 225.672 248.981 225.709 248.997 C 225.76 249.019 225.811 249.042 225.861 249.067 C 225.9 249.086 225.937 249.107 225.976 249.129 C 226.02 249.153 226.064 249.179 226.108 249.206 C 226.15 249.232 226.191 249.26 226.231 249.288 C 226.268 249.314 226.305 249.34 226.34 249.367 C 226.384 249.4 226.426 249.435 226.467 249.471 C 226.498 249.498 226.529 249.524 226.559 249.552 C 226.6 249.59 226.639 249.63 226.678 249.67 C 226.708 249.701 226.736 249.731 226.764 249.763 C 226.799 249.802 226.833 249.843 226.866 249.884 C 226.896 249.922 226.925 249.961 226.953 250 C 226.98 250.037 227.006 250.076 227.032 250.115 C 227.063 250.163 227.092 250.211 227.121 250.261 C 227.133 250.281 227.146 250.299 227.157 250.32 L 235.393 265.519 L 243.628 250.32 C 243.639 250.3 243.652 250.282 243.663 250.262 C 243.692 250.212 243.722 250.162 243.754 250.114 C 243.778 250.075 243.805 250.037 243.831 250 C 243.86 249.961 243.889 249.922 243.919 249.883 C 243.952 249.842 243.986 249.801 244.02 249.762 C 244.048 249.731 244.077 249.7 244.106 249.67 C 244.145 249.629 244.185 249.589 244.226 249.551 C 244.256 249.524 244.287 249.497 244.317 249.471 C 244.359 249.435 244.401 249.4 244.445 249.366 C 244.48 249.339 244.517 249.314 244.553 249.288 C 244.594 249.26 244.635 249.232 244.677 249.205 C 244.72 249.178 244.765 249.153 244.81 249.128 C 244.847 249.107 244.885 249.086 244.923 249.067 C 244.974 249.041 245.026 249.018 245.078 248.996 C 245.114 248.98 245.149 248.965 245.185 248.951 C 245.239 248.93 245.294 248.911 245.349 248.894 C 245.388 248.881 245.426 248.869 245.465 248.859 C 245.517 248.844 245.57 248.831 245.623 248.82 C 245.669 248.809 245.715 248.8 245.761 248.793 C 245.808 248.784 245.855 248.778 245.903 248.772 C 245.958 248.765 246.014 248.76 246.07 248.756 C 246.093 248.755 246.116 248.751 246.14 248.75 L 265.856 247.907 C 269.083 243.599 272.467 237.268 274.858 231.014 Z M 246.028 242.337 C 245.457 243.894 243.732 244.692 242.174 244.12 C 240.005 243.322 237.723 242.918 235.393 242.918 C 233.061 242.918 230.778 243.323 228.609 244.12 C 228.267 244.246 227.917 244.306 227.573 244.306 C 226.35 244.306 225.201 243.553 224.754 242.338 C 224.182 240.782 224.98 239.056 226.536 238.484 C 229.372 237.441 232.351 236.912 235.393 236.912 C 238.433 236.912 241.411 237.44 244.246 238.482 C 245.803 239.055 246.6 240.781 246.028 242.337 Z"></path>
  </g>
</svg>